# AST/ASF file generated using VICON BodyLanguage
# -----------------------------------------------
:version 1.10
:name VICON
:units
  mass 1.0
  length 0.45
  angle deg
:documentation
   .ast/.asf automatically generated from VICON data using
   VICON BodyBuilder and BodyLanguage model FoxedUp or BRILLIANT.MOD
:root
   order TX TY TZ RX RY RZ
   axis XYZ
   position 0 0 0  
   orientation 0 0 0 
:bonedata
  begin
     id 1 
     name lhipjoint
     direction 0.567725 -0.736092 0.368589 
     length 2.42353 
     axis 0 0 0  XYZ
  end
  begin
     id 2 
     name lfemur
     direction 0.34202 -0.939693 0  
     length 7.24894  
     axis 0 0 20  XYZ
    dof rx ry rz
    limits (-160.0 20.0)
           (-70.0 70.0)
           (-60.0 70.0)
  end
  begin
     id 3 
     name ltibia
     direction 0.34202 -0.939693 0   
     length 7.6997   
     axis 0 0 20   XYZ
    dof rx
    limits (-10.0 170.0)
  end
  begin
     id 4 
     name lfoot
     direction 0.100767 -0.276854 0.955614   
     length 2.37556   
     axis -90 7.62852e-016 20   XYZ
    dof rx rz
    limits (-45.0 90.0)
           (-70.0 20.0)
  end
  begin
     id 5 
     name ltoes
     direction 1.53592e-011 -4.21894e-011 1   
     length 1.18363   
     axis -90 7.62852e-016 20   XYZ
    dof rx
    limits (-90.0 20.0)
  end
  begin
     id 6 
     name rhipjoint
     direction -0.556459 -0.742938 0.372017   
     length 2.4012  
     axis 0 0 0  XYZ 
  end
  begin
     id 7 
     name rfemur
     direction -0.34202 -0.939693 0   
     length 7.5119   
     axis 0 0 -20   XYZ
    dof rx ry rz
    limits (-160.0 20.0)
           (-70.0 70.0)
           (-70.0 60.0)
  end
  begin
     id 8 
     name rtibia
     direction -0.34202 -0.939693 0   
     length 7.50155   
     axis 0 0 -20   XYZ
    dof rx
    limits (-10.0 170.0)
 end
 begin
     id 9 
     name rfoot
     direction -0.118427 -0.325376 0.938139   
     length 2.32487  
     axis -90 -7.62852e-016 -20   XYZ
    dof rx rz
    limits (-45.0 90.0)
           (-20.0 70.0)
  end
  begin
     id 10 
     name rtoes
     direction -1.53525e-011 -4.21868e-011 1   
     length 1.15233   
     axis -90 -7.62852e-016 -20   XYZ
    dof rx
    limits (-90.0 20.0)
  end
  begin
     id 11 
     name lowerback
     direction 0.0287568 0.999577 -0.00434502   
     length 2.15243   
     axis 0 0 0   XYZ
    dof rx ry rz
    limits (-20.0 45.0)
           (-30.0 30.0)
           (-30.0 30.0)
  end
  begin
     id 12 
     name upperback
     direction 0.0294009 0.99956 0.00404628   
     length 2.15427   
     axis 0 0 0   XYZ
    dof rx ry rz
    limits (-20.0 45.0)
           (-30.0 30.0)
           (-30.0 30.0)
  end
  begin
     id 13 
     name thorax
     direction 0.0151014 0.999868 0.0059419   
     length 2.14898   
     axis 0 0 0   XYZ
    dof rx ry rz
    limits (-20.0 45.0)
           (-30.0 30.0)
           (-30.0 30.0)
  end
  begin
     id 14 
     name lowerneck
     direction -0.0249197 0.989906 0.139515   
     length 1.6861   
     axis 0 0 0   XYZ
    dof rx ry rz
    limits (-20.0 45.0)
           (-30.0 30.0)
           (-30.0 30.0)
  end
  begin
     id 15 
     name upperneck
     direction 0.0438463 0.988795 -0.142693   
     length 1.71276   
     axis 0 0 0   XYZ
    dof rx ry rz
    limits (-20.0 45.0)
           (-30.0 30.0)
           (-30.0 30.0)
  end
  begin
     id 16
     name head
     direction 0.0148499 0.997845 -0.0639186  
     length 1.7209  
     axis 0 0 0   XYZ
    dof rx ry rz
    limits (-20.0 45.0)
           (-30.0 30.0)
           (-30.0 30.0)
  end
  begin
     id 17 
     name lclavicle
     direction 0.940298 0.323464 -0.105876  
     length 3.9048  
     axis 0 0 0   XYZ
    dof ry rz
    limits (-20.0 10.0)
           (0.0 20.0)
  end
  begin
     id 18 
     name lhumerus
     direction 1 -4.48954e-011 -4.9675e-028   
     length 4.6851   
     axis 180 -30 -90   XYZ
    dof rx ry rz
    limits (-60.0 90.0)
           (-90.0 90.0)
           (-90.0 90.0)
  end
  begin
     id 19
     name lradius
     direction 1 -4.48992e-011 -1.03359e-026   
     length 3.39626   
     axis 180 -30 -90   XYZ
    dof rx
    limits (-10.0 170.0)
  end
  begin
     id 20
     name lwrist
     direction 1 -4.48906e-011 -1.67336e-026   
     length 1.69813   
     axis 9.90442e-015 90 90   XYZ
    dof ry
    limits (-180.0 0.0)
 end
  begin
     id 21 
     name lhand
     direction 1 -4.49006e-011 -3.34673e-026   
     length 0.486078   
     axis 2.1355e-014 90 90   XYZ
    dof rx rz
    limits (-90.0 90.0)
           (-45.0 45.0)
  end
  begin
     id 22 
     name lfingers
     direction 1 -4.48992e-011 -6.69345e-026   
     length 0.391889   
     axis 4.27099e-014 90 90   XYZ
    dof rx
    limits (0.0 90.0)
  end
  begin
     id 23
     name lthumb
     direction 0.707107 -6.34926e-011 0.707107   
     length 0.562676   
     axis -90 45 2.85299e-015   XYZ
    dof rx rz
    limits (-45.0 45.0)
           (-45.0 45.0)
  end
  begin
     id 24 
     name rclavicle
     direction -0.882459 0.414895 -0.221648   
     length 3.44646  
     axis 0 0 0   XYZ 
    dof ry rz
    limits (-10.0 20.0)
           (-20.0 0.0)
  end
  begin
     id 25 
     name rhumerus
     direction -1 -4.48962e-011 -2.37984e-027  
     length 5.55576   
     axis 180 30 90   XYZ
    dof rx ry rz
    limits (-90.0 60.0)
           (-90.0 90.0)
           (-90.0 90.0)
  end
  begin
     id 26 
     name rradius
     direction -1 -4.48982e-011 -6.86791e-027   
     length 3.32774   
     axis 180 30 90   XYZ
    dof rx
    limits (-10.0 170.0)
  end
  begin
     id 27 
     name rwrist
     direction -1 -4.48961e-011 -1.67336e-026   
     length 1.66387   
     axis 9.90442e-015 -90 -90   XYZ
    dof ry
    limits (-180.0 0.0)
  end
  begin
     id 28
     name rhand
     direction -1 -4.4897e-011 -3.34673e-026   
     length 0.507628   
     axis 2.1355e-014 -90 -90   XYZ
    dof rx rz
    limits (-90.0 90.0)
           (-45.0 45.0)
  end
  begin
     id 29
     name rfingers
     direction -1 -4.48854e-011 -6.69345e-026   
     length 0.409263   
     axis 4.27099e-014 -90 -90   XYZ
    dof rx
    limits (0.0 90.0)
  end
  begin
     id 30
     name rthumb
     direction -0.707107 -6.34913e-011 0.707107   
     length 0.587622   
     axis -90 -45 -2.85299e-015   XYZ
    dof rx rz
    limits (-45.0 45.0)
           (-45.0 45.0)
  end
:hierarchy
  begin
    root lhipjoint rhipjoint lowerback
    lhipjoint lfemur
    lfemur ltibia
    ltibia lfoot
    lfoot ltoes
    rhipjoint rfemur
    rfemur rtibia
    rtibia rfoot
    rfoot rtoes
    lowerback upperback
    upperback thorax
    thorax lowerneck lclavicle rclavicle
    lowerneck upperneck
    upperneck head
    lclavicle lhumerus
    lhumerus lradius
    lradius lwrist
    lwrist lhand lthumb
    lhand lfingers
    rclavicle rhumerus
    rhumerus rradius
    rradius rwrist
    rwrist rhand rthumb
    rhand rfingers
  end

#!OML:ASF E:\motion texture\Top Level 1\Subject 1\Session 1\male.ASF
:FULLY-SPECIFIED
:DEGREES
50
root 37.1492 17.7203 4.24358 114.269 -84.7761 -104.324
lowerback 27.6141 24.5341 21.0189
upperback 9.32322 38.1252 13.8021
thorax -179.064 118.539 -6.20101
lowerneck 15.8201 12.9451 3.78345
upperneck -7.37635 64.1623 -7.4469
head 166.926 113.138 13.6602
rclavicle -6.67916e-014 -1.59028e-015
rhumerus 61.6969 -4.91015 105.08
rradius 46.0806
rwrist -50.5326
rhand -16.9069 -77.6452
rfingers 7.12502
rthumb 9.32515 -252.581
lclavicle -6.67916e-014 -1.59028e-015
lhumerus 57.7557 -0.156747 -92.7701
lradius 40.1859
lwrist 28.0225
lhand -5.235 48.7749
lfingers 7.12502
lthumb 20.5676 77.7053
rfemur -14.1704 1.34323 29.378
rtibia 20.7405
rfoot -12.74 -8.36601
rtoes 16.6233
lfemur -24.0369 2.78089 -10.3894
ltibia 36.8408
lfoot -14.5137 8.43747
ltoes -8.59522
51
root 37.1286 17.7169 4.22412 112.907 -84.6332 -103.091
lowerback 28.1915 23.9152 18.2674
upperback 10.6705 39.6051 13.8967
thorax -177.576 116.8 -4.7599
lowerneck 16.0777 11.7438 5.10433
upperneck -6.78282 60.6659 -7.03905
head 169.25 116.393 17.0105
rclavicle -1.20066e-013 6.63941e-014
rhumerus 63.667 -1.95494 104.471
rradius 47.3784
rwrist -51.5563
rhand -16.9974 -77.1046
rfingers 7.12502
rthumb 9.23784 -253.118
lclavicle -1.20066e-013 6.63941e-014
lhumerus 58.7943 2.89942 -93.8706
lradius 40.1002
lwrist 27.5854
lhand -4.98143 48.6273
lfingers 7.12502
lthumb 20.8113 77.5312
rfemur -13.879 1.18555 29.6314
rtibia 20.6412
rfoot -12.8039 -8.17756
rtoes 16.7965
lfemur -24.9287 3.16915 -10.2653
ltibia 38.5624
lfoot -14.604 8.61051
ltoes -9.59886
52
root 37.1088 17.714 4.20153 111.87 -84.5286 -102.165
lowerback 27.928 23.9555 18.2127
upperback 10.5145 39.3963 13.7408
thorax -177.625 117.144 -4.75151
lowerneck 15.9294 11.6496 5.09178
upperneck -6.55945 60.197 -6.80385
head 169.221 116.998 16.7301
rclavicle -1.61016e-013 5.56597e-015
rhumerus 64.0984 -1.77449 104.875
rradius 48.2711
rwrist -51.9594
rhand -17.8219 -78.5247
rfingers 7.12502
rthumb 8.44218 -251.664
lclavicle -1.61016e-013 5.56597e-015
lhumerus 58.797 2.60252 -94.3435
lradius 40.1879
lwrist 27.8836
lhand -5.08244 49.1168
lfingers 7.12502
lthumb 20.7142 78.0313
rfemur -13.5839 0.999917 29.8376
rtibia 20.4848
rfoot -12.8603 -7.96109
rtoes 16.9617
lfemur -25.8477 3.52413 -10.1802
ltibia 40.3027
lfoot -14.9112 8.64359
ltoes -10.3212
53
root 37.0838 17.7117 4.17954 112.089 -84.372 -102.522
lowerback 28.2572 23.9099 18.2742
upperback 10.7029 39.6073 13.9215
thorax -177.582 117.144 -4.78494
lowerneck 16.0426 11.7381 5.22161
upperneck -6.66159 60.2601 -6.93387
head 169.471 116.785 17.205
rclavicle 1.11717e-013 2.14687e-014
rhumerus 65.3097 -1.71543 105.301
rradius 48.9682
rwrist -52.5778
rhand -16.159 -75.3178
rfingers 7.12502
rthumb 10.0467 -254.942
lclavicle 1.11717e-013 2.14687e-014
lhumerus 59.3413 2.42028 -94.7432
lradius 40.291
lwrist 27.9617
lhand -5.27188 48.8357
lfingers 7.12502
lthumb 20.5322 77.77
rfemur -13.2748 0.940562 30.0675
rtibia 20.4189
rfoot -12.9434 -7.76787
rtoes 16.7931
lfemur -26.6395 3.89578 -10.0783
ltibia 41.8601
lfoot -15.3347 8.45571
ltoes -10.7332
54
root 37.0564 17.7093 4.16188 111.905 -84.2164 -102.473
lowerback 29.1495 23.708 18.2856
upperback 11.2843 40.248 14.4205
thorax -177.369 116.796 -4.77658
lowerneck 16.3814 11.8513 5.47338
upperneck -7.02151 60.5696 -7.35154
head 169.948 116.379 18.3735
rclavicle 1.39149e-014 1.98785e-015
rhumerus 66.9634 -1.79028 105.362
rradius 49.9713
rwrist -52.5115
rhand -13.4514 -71.6434
rfingers 7.12502
rthumb 12.658 -258.76
lclavicle 1.39149e-014 1.98785e-015
lhumerus 60.4958 2.48391 -95.0901
lradius 40.4157
lwrist 27.6744
lhand -4.61174 49.044
lfingers 7.12502
lthumb 21.1664 77.9085
rfemur -13.0275 0.856142 30.2815
rtibia 20.4557
rfoot -13.1236 -7.55139
rtoes 17.0274
lfemur -27.4096 4.16319 -9.99794
ltibia 43.2597
lfoot -15.5647 7.84707
ltoes -10.3588
55
root 37.0261 17.7081 4.14196 111.971 -84.1076 -102.651
lowerback 29.5353 23.6434 18.2784
upperback 11.5358 40.506 14.6307
thorax -177.288 116.86 -4.78505
lowerneck 16.51 11.9105 5.54906
upperneck -7.16582 60.7026 -7.51429
head 170.117 116.321 18.8043
rclavicle 4.49253e-014 2.38542e-014
rhumerus 68.1711 -1.90952 105.666
rradius 51.0668
rwrist -53.015
rhand -11.147 -68.1533
rfingers 7.12502
rthumb 14.8788 -262.401
lclavicle 4.49253e-014 2.38542e-014
lhumerus 61.1608 2.24601 -95.5431
lradius 40.5584
lwrist 27.7517
lhand -4.61231 49.0129
lfingers 7.12502
lthumb 21.1659 77.8775
rfemur -12.5896 0.764517 30.4526
rtibia 20.1304
rfoot -13.126 -7.35401
rtoes 16.8628
lfemur -28.1724 4.41274 -9.96405
ltibia 44.4907
lfoot -15.6001 7.3654
ltoes -9.63
56
root 36.9939 17.7077 4.12094 113.135 -84.0101 -103.945
lowerback 29.2047 23.7783 18.1426
upperback 11.3485 40.2886 14.4124
thorax -177.333 117.371 -4.74901
lowerneck 16.3172 11.8345 5.46909
upperneck -6.91806 60.3634 -7.24254
head 169.954 116.725 18.2699
rclavicle -4.69132e-014 -5.40694e-014
rhumerus 68.6476 -1.91313 106.019
rradius 52.1946
rwrist -53.3021
rhand -8.42281 -64.2631
rfingers 7.12502
rthumb 17.502 -266.505
lclavicle -4.69132e-014 -5.40694e-014
lhumerus 61.1175 1.89496 -95.8793
lradius 40.6333
lwrist 27.8054
lhand -4.48502 48.8233
lfingers 7.12502
lthumb 21.2881 77.6741
rfemur -12.328 0.668985 30.5557
rtibia 20.1701
rfoot -13.3295 -7.02646
rtoes 16.8569
lfemur -28.8229 4.73466 -9.98148
ltibia 45.5216
lfoot -15.6534 6.94301
ltoes -10.0294
57
root 36.9605 17.7083 4.10202 113.684 -83.8995 -104.583
lowerback 28.6597 23.9412 18.001
upperback 11.0254 39.9134 14.0769
thorax -177.427 117.985 -4.71309
lowerneck 16.0436 11.6876 5.32769
upperneck -6.58446 59.8733 -6.86958
head 169.688 117.443 17.4906
rclavicle -1.23246e-014 3.02153e-014
rhumerus 68.9906 -1.87714 106.361
rradius 53.3617
rwrist -53.6092
rhand -8.72602 -64.765
rfingers 7.12502
rthumb 17.2102 -265.977
lclavicle -1.23246e-014 3.02153e-014
lhumerus 60.942 1.49882 -96.2978
lradius 40.692
lwrist 27.8509
lhand -4.42967 48.6803
lfingers 7.12502
lthumb 21.3413 77.5252
rfemur -11.9251 0.757573 30.7002
rtibia 19.9029
rfoot -13.4635 -6.89538
rtoes 17.0168
lfemur -29.5206 4.93228 -9.96672
ltibia 46.5055
lfoot -15.8125 6.47143
ltoes -10.0792
58
root 36.9242 17.7098 4.08313 114.414 -83.8275 -105.394
lowerback 28.5554 23.9972 17.8657
upperback 10.9949 39.8717 13.9963
thorax -177.408 118.252 -4.66497
lowerneck 15.9551 11.6286 5.34487
upperneck -6.44916 59.5612 -6.73192
head 169.697 117.737 17.3542
rclavicle 5.20816e-014 5.96354e-015
rhumerus 69.9974 -1.94302 106.879
rradius 54.5609
rwrist -54.1786
rhand -9.02386 -65.0982
rfingers 7.12502
rthumb 16.9235 -265.619
lclavicle 5.20816e-014 5.96354e-015
lhumerus 61.1918 1.24689 -96.689
lradius 40.8193
lwrist 27.8932
lhand -4.45439 48.7347
lfingers 7.12502
lthumb 21.3176 77.5822
rfemur -11.5986 0.739051 30.794
rtibia 19.7577
rfoot -13.6212 -6.69509
rtoes 16.7553
lfemur -30.1801 5.13084 -10.009
ltibia 47.2789
lfoot -15.8656 6.03421
ltoes -10.187
59
root 36.8862 17.7112 4.06329 116.216 -83.7363 -107.256
lowerback 29.1154 23.9262 17.6907
upperback 11.4214 40.3756 14.2963
thorax -177.2 117.942 -4.57549
lowerneck 16.1539 11.6529 5.51805
upperneck -6.65131 59.7293 -6.973
head 169.977 117.355 18.0464
rclavicle 9.93923e-015 -3.18055e-015
rhumerus 71.6942 -1.99427 107.066
rradius 55.8834
rwrist -54.5015
rhand -9.25368 -65.3305
rfingers 7.12502
rthumb 16.7022 -265.368
lclavicle 9.93923e-015 -3.18055e-015
lhumerus 62.0777 1.32551 -97.0912
lradius 41.0152
lwrist 28.0341
lhand -4.736 49.1011
lfingers 7.12502
lthumb 21.047 77.979
rfemur -11.2034 0.875014 30.8765
rtibia 19.4579
rfoot -13.743 -6.52831
rtoes 16.49
lfemur -30.7845 5.39334 -10.0736
ltibia 47.8426
lfoot -15.8367 5.61274
ltoes -10.0271
60
root 36.8459 17.7135 4.04861 117.218 -83.6931 -108.33
lowerback 29.1483 23.9471 17.4389
upperback 11.5226 40.4804 14.2846
thorax -177.094 118.111 -4.46888
lowerneck 16.1113 11.546 5.53005
upperneck -6.57147 59.4728 -6.88953
head 169.959 117.741 17.9904
rclavicle -7.95139e-016 1.4392e-013
rhumerus 72.5605 -2.06367 107.148
rradius 57.6792
rwrist -54.7954
rhand -10.0413 -67.0617
rfingers 7.12502
rthumb 15.9439 -263.575
lclavicle -7.95139e-016 1.4392e-013
lhumerus 62.4828 1.1604 -97.5779
lradius 41.1746
lwrist 28.1139
lhand -4.47758 49.006
lfingers 7.12502
lthumb 21.2953 77.856
rfemur -10.8291 0.87805 30.8976
rtibia 19.2247
rfoot -13.9111 -6.30591
rtoes 16.3909
lfemur -31.3656 5.55636 -10.1876
ltibia 48.2403
lfoot -15.664 5.26195
ltoes -10.3092
61
root 36.8059 17.7193 4.02644 120.305 -83.4416 -111.541
lowerback 28.674 24.2123 17.2688
upperback 11.2444 40.2075 13.9771
thorax -177.187 118.798 -4.43855
lowerneck 15.8238 11.4071 5.4089
upperneck -6.22995 58.9086 -6.51273
head 169.737 118.428 17.2301
rclavicle 3.10104e-014 3.29983e-014
rhumerus 73.1631 -2.12349 107.518
rradius 58.9345
rwrist -55.1703
rhand -27.8605 -39.5958
rfingers 7.12502
rthumb -1.25121 -429.572
lclavicle 3.10104e-014 3.29983e-014
lhumerus 62.298 0.742511 -97.9851
lradius 41.3252
lwrist 28.239
lhand -4.36333 49.0316
lfingers 7.12502
lthumb 21.405 77.8692
rfemur -10.3979 1.12564 31.0642
rtibia 19.044
rfoot -14.0771 -6.21132
rtoes 15.8568
lfemur -31.7406 5.99469 -10.1327
ltibia 48.5133
lfoot -15.5132 5.0333
ltoes -10.7427
62
root 36.7614 17.7204 4.0124 121.762 -83.3194 -113.027
lowerback 28.2977 24.3581 17.0686
upperback 11.0541 40.0109 13.7362
thorax -177.214 119.181 -4.36588
lowerneck 15.6136 11.2299 5.30053
upperneck -5.99476 58.4746 -6.24783
head 169.541 119.049 16.6609
rclavicle -5.20816e-014 4.29375e-014
rhumerus 73.9969 -2.132 107.828
rradius 60.4247
rwrist -55.2882
rhand -6.82993 -62.3137
rfingers 7.12502
rthumb 19.0344 -268.598
lclavicle -5.20816e-014 4.29375e-014
lhumerus 62.3151 0.513417 -98.3471
lradius 41.507
lwrist 28.4534
lhand -4.31399 48.9401
lfingers 7.12502
lthumb 21.4524 77.7723
rfemur -10.0824 1.18749 31.1346
rtibia 18.8815
rfoot -14.3404 -5.8766
rtoes 15.5435
lfemur -32.2489 6.14878 -10.1802
ltibia 48.5879
lfoot -15.216 4.86833
ltoes -11.2476
